<?xml version="1.0" encoding="UTF-8" standalone="no"?>
<svg width="512" height="512" viewBox="0 0 512 512" fill="none" xmlns="http://www.w3.org/2000/svg">
  <!-- Background -->
  <rect width="512" height="512" rx="100" fill="white"/>
  
  <!-- Server with API symbol -->
  <rect x="126" y="156" width="260" height="200" rx="20" fill="#0063B2"/>
  
  <!-- Server lights -->
  <circle cx="156" cy="186" r="10" fill="#4CAF50"/>
  <circle cx="186" cy="186" r="10" fill="#FFC107"/>
  <circle cx="216" cy="186" r="10" fill="#F44336"/>
  
  <!-- Server slots -->
  <rect x="146" y="216" width="220" height="20" rx="5" fill="#004884"/>
  <rect x="146" y="246" width="220" height="20" rx="5" fill="#004884"/>
  <rect x="146" y="276" width="220" height="20" rx="5" fill="#004884"/>
  <rect x="146" y="306" width="220" height="20" rx="5" fill="#004884"/>
  
  <!-- API Text -->
  <path d="M176 376H336" stroke="#0063B2" stroke-width="16" stroke-linecap="round"/>
  <path d="M196 350L176 376L196 402" stroke="#0063B2" stroke-width="16" stroke-linecap="round" stroke-linejoin="round"/>
  <path d="M316 350L336 376L316 402" stroke="#0063B2" stroke-width="16" stroke-linecap="round" stroke-linejoin="round"/>
  
  <!-- Shield symbolizing security -->
  <path d="M256 116C290 132 324 140 358 132C358 194 334 250 256 286C178 250 154 194 154 132C188 140 222 132 256 116Z" fill="#00C2B8"/>
  
  <!-- Key symbolizing keychain access -->
  <circle cx="256" cy="156" r="15" fill="white"/>
  <rect x="246" y="156" width="40" height="15" rx="5" fill="white"/>
  <rect x="271" y="156" width="10" height="25" rx="5" fill="white"/>
  <rect x="281" y="166" width="10" height="10" rx="5" fill="white"/>
</svg>